# xmcd
#
# Track frame offsets: 
#        150
#        19276
#        38979
#        58763
#        74848
#        93710
#        115788
#        131942
#        152473
#        169457
#        188323
#        208125
#        229882
#        250071
#        274785
#
# Disc length: 3916 seconds
#
# Revision: 1
# Processed by: cddbd v1.5.2PL0 Copyright (c) Steve Scherf et al.
# Submitted via: ExactAudioCopy v0.99pb3
#
DISCID=e00f4a0f
DTITLE=Various Artist - Latina Fever Vol.6 [CD1)
DYEAR=2011
DGENRE=Salsa
TTITLE0=Luis Enrique - Sonrie
TTITLE1=Maykel Blanco Y Su Salsa Major - Soy Lo Que Te Hala
TTITLE2=Anthony G - Dejame Beber
TTITLE3=Issac Delgado - El Macao
TTITLE4=Sonora Carruseles - Boogaloo Pa Gozar
TTITLE5=La Contrabanda - Espacio Y Tiempo
TTITLE6=Dante Vargas and The Cat Band - La Guarapachanga
TTITLE7=Jesus Pagan Y Su Orquestra - Tributo A La Salsa De Ayer
TTITLE8=Salsa Illegal - Utopias
TTITLE9=La Ritmica - Juana P
TTITLE10=Los Hijos De Los Celebres - Bajo Un Palmar
TTITLE11=Batazo - Me Anda Buscando El Son
TTITLE12=Markoz - Agua Fria
TTITLE13=Maelo Ruiz - Te Necesito Mi Amor
TTITLE14=Tito Rojas - Que Vivan Las Mujeres
EXTD=YEAR: 2011
EXTT0=
EXTT1=
EXTT2=
EXTT3=
EXTT4=
EXTT5=
EXTT6=
EXTT7=
EXTT8=
EXTT9=
EXTT10=
EXTT11=
EXTT12=
EXTT13=
EXTT14=
PLAYORDER=
